<?xml version="1.0" encoding="UTF-8" standalone="no"?>
<!-- Created with Inkscape (http://www.inkscape.org/) -->

<svg
   width="297mm"
   height="210mm"
   viewBox="0 0 297 210"
   version="1.1"
   id="svg5"
   inkscape:version="1.2.2 (b0a84865, 2022-12-01)"
   sodipodi:docname="background.svg"
   xmlns:inkscape="http://www.inkscape.org/namespaces/inkscape"
   xmlns:sodipodi="http://sodipodi.sourceforge.net/DTD/sodipodi-0.dtd"
   xmlns="http://www.w3.org/2000/svg"
   xmlns:svg="http://www.w3.org/2000/svg">
  <sodipodi:namedview
     id="namedview7"
     pagecolor="#ffffff"
     bordercolor="#000000"
     borderopacity="0.25"
     inkscape:showpageshadow="2"
     inkscape:pageopacity="0.0"
     inkscape:pagecheckerboard="0"
     inkscape:deskcolor="#d1d1d1"
     inkscape:document-units="mm"
     showgrid="false"
     inkscape:zoom="0.46653355"
     inkscape:cx="340.8115"
     inkscape:cy="440.48279"
     inkscape:window-width="1309"
     inkscape:window-height="735"
     inkscape:window-x="0"
     inkscape:window-y="38"
     inkscape:window-maximized="0"
     inkscape:current-layer="layer2" />
  <defs
     id="defs2" />
  <g
     inkscape:groupmode="layer"
     id="layer2"
     inkscape:label="Layer 2">
    <rect
       style="fill:#000000;stroke:#000000;stroke-width:1.6;fill-opacity:1"
       id="rect6084"
       width="355.0209"
       height="251.23685"
       x="-28.923426"
       y="-15.312403" />
  </g>
  <g
     inkscape:label="Layer 1"
     inkscape:groupmode="layer"
     id="layer1"
     style="display:inline">
    <path
       sodipodi:type="star"
       style="display:inline;fill:#9c59d1;fill-opacity:1;stroke:#000000;stroke-width:2.81937;stroke-dasharray:none;stroke-opacity:1"
       id="path3183"
       inkscape:flatsided="false"
       sodipodi:sides="5"
       sodipodi:cx="22.685043"
       sodipodi:cy="108.32108"
       sodipodi:r1="91.855164"
       sodipodi:r2="45.927574"
       sodipodi:arg1="0.76356757"
       sodipodi:arg2="1.3918861"
       inkscape:rounded="0"
       inkscape:randomized="0"
       d="M 89.038791,171.8392 30.85819,153.51557 -17.21984,191.05542 -17.771827,130.06007 -68.331279,95.935601 -10.491825,76.56203 6.3387464,17.932092 42.637482,66.953919 103.5988,64.843097 68.193197,114.51382 Z"
       inkscape:transform-center-x="-2.8666171"
       inkscape:transform-center-y="2.1720184"
       transform="matrix(-0.56750365,0,0,-0.56750365,131.4473,169.54397)" />
    <path
       sodipodi:type="star"
       style="fill:#fcf434;fill-opacity:1;stroke:#000000;stroke-width:2.81937;stroke-dasharray:none;stroke-opacity:1"
       id="path808"
       inkscape:flatsided="false"
       sodipodi:sides="5"
       sodipodi:cx="22.685043"
       sodipodi:cy="108.32108"
       sodipodi:r1="91.855164"
       sodipodi:r2="45.927574"
       sodipodi:arg1="0.76356757"
       sodipodi:arg2="1.3918861"
       inkscape:rounded="0"
       inkscape:randomized="0"
       d="M 89.038791,171.8392 30.85819,153.51557 -17.21984,191.05542 -17.771827,130.06007 -68.331279,95.935601 -10.491825,76.56203 6.3387464,17.932092 42.637482,66.953919 103.5988,64.843097 68.193197,114.51382 Z"
       inkscape:transform-center-x="-2.1720167"
       inkscape:transform-center-y="-2.8666231"
       transform="matrix(0,0.56750367,-0.56750367,0,204.9996,1.0545772)" />
    <path
       sodipodi:type="star"
       style="fill:#000000;fill-opacity:1;stroke:#9c59d1;stroke-width:2.64315;stroke-dasharray:none;stroke-opacity:1"
       id="path2424"
       inkscape:flatsided="false"
       sodipodi:sides="5"
       sodipodi:cx="22.685043"
       sodipodi:cy="108.32108"
       sodipodi:r1="91.855164"
       sodipodi:r2="45.927574"
       sodipodi:arg1="0.76356757"
       sodipodi:arg2="1.3918861"
       inkscape:rounded="0"
       inkscape:randomized="0"
       d="M 89.038791,171.8392 30.85819,153.51557 -17.21984,191.05542 -17.771827,130.06007 -68.331279,95.935601 -10.491825,76.56203 6.3387464,17.932092 42.637482,66.953919 103.5988,64.843097 68.193197,114.51382 Z"
       inkscape:transform-center-x="-2.0330992"
       inkscape:transform-center-y="3.0043888"
       transform="matrix(-0.14688076,-0.54816644,0.54816644,-0.14688076,21.127253,74.600074)" />
    <path
       sodipodi:type="star"
       style="display:inline;fill:#ffffff;fill-opacity:1;stroke:#000000;stroke-width:2.81937;stroke-dasharray:none;stroke-opacity:1"
       id="path3912"
       inkscape:flatsided="false"
       sodipodi:sides="5"
       sodipodi:cx="22.685043"
       sodipodi:cy="108.32108"
       sodipodi:r1="91.855164"
       sodipodi:r2="45.927574"
       sodipodi:arg1="0.76356757"
       sodipodi:arg2="1.3918861"
       inkscape:rounded="0"
       inkscape:randomized="0"
       d="M 89.038791,171.8392 30.85819,153.51557 -17.21984,191.05542 -17.771827,130.06007 -68.331279,95.935601 -10.491825,76.56203 6.3387464,17.932092 42.637482,66.953919 103.5988,64.843097 68.193197,114.51382 Z"
       inkscape:transform-center-x="-3.0043975"
       inkscape:transform-center-y="-2.0330956"
       transform="matrix(-0.54816644,0.14688076,-0.14688076,-0.54816644,208.16854,150.50631)" />
    <path
       sodipodi:type="star"
       style="fill:#000000;fill-opacity:1;stroke:#fcf434;stroke-width:2.64315;stroke-dasharray:none;stroke-opacity:1"
       id="path3914"
       inkscape:flatsided="false"
       sodipodi:sides="5"
       sodipodi:cx="22.685043"
       sodipodi:cy="108.32108"
       sodipodi:r1="91.855164"
       sodipodi:r2="45.927574"
       sodipodi:arg1="0.76356757"
       sodipodi:arg2="1.3918861"
       inkscape:rounded="0"
       inkscape:randomized="0"
       d="M 89.038791,171.8392 30.85819,153.51557 -17.21984,191.05542 -17.771827,130.06007 -68.331279,95.935601 -10.491825,76.56203 6.3387464,17.932092 42.637482,66.953919 103.5988,64.843097 68.193197,114.51382 Z"
       inkscape:transform-center-x="-0.49170202"
       inkscape:transform-center-y="-4.5078366"
       transform="matrix(0.28375183,-0.49147259,0.49147259,0.28375183,151.90835,14.757741)" />
    <path
       sodipodi:type="star"
       style="display:inline;fill:#ffffff;fill-opacity:1;stroke:#000000;stroke-width:2.81937;stroke-dasharray:none;stroke-opacity:1"
       id="path3916"
       inkscape:flatsided="false"
       sodipodi:sides="5"
       sodipodi:cx="22.685043"
       sodipodi:cy="108.32108"
       sodipodi:r1="91.855164"
       sodipodi:r2="45.927574"
       sodipodi:arg1="0.76356757"
       sodipodi:arg2="1.3918861"
       inkscape:rounded="0"
       inkscape:randomized="0"
       d="M 89.038791,171.8392 30.85819,153.51557 -17.21984,191.05542 -17.771827,130.06007 -68.331279,95.935601 -10.491825,76.56203 6.3387464,17.932092 42.637482,66.953919 103.5988,64.843097 68.193197,114.51382 Z"
       inkscape:transform-center-x="-3.0043995"
       inkscape:transform-center-y="-2.0330955"
       transform="matrix(-0.54816644,0.14688076,-0.14688076,-0.54816644,73.192533,157.31183)" />
    <path
       sodipodi:type="star"
       style="fill:#fcf434;fill-opacity:1;stroke:#9c59d1;stroke-width:2.81937;stroke-dasharray:none;stroke-opacity:1"
       id="path3918"
       inkscape:flatsided="false"
       sodipodi:sides="5"
       sodipodi:cx="22.685043"
       sodipodi:cy="108.32108"
       sodipodi:r1="91.855164"
       sodipodi:r2="45.927574"
       sodipodi:arg1="0.76356757"
       sodipodi:arg2="1.3918861"
       inkscape:rounded="0"
       inkscape:randomized="0"
       d="M 89.038791,171.8392 30.85819,153.51557 -17.21984,191.05542 -17.771827,130.06007 -68.331279,95.935601 -10.491825,76.56203 6.3387464,17.932092 42.637482,66.953919 103.5988,64.843097 68.193197,114.51382 Z"
       inkscape:transform-center-x="1.193993"
       inkscape:transform-center-y="-3.8285454"
       transform="matrix(-0.49147259,0.28375183,-0.28375183,-0.49147259,221.14132,197.97284)" />
    <path
       sodipodi:type="star"
       style="display:inline;fill:#9c59d1;fill-opacity:1;stroke:#000000;stroke-width:2.81937;stroke-dasharray:none;stroke-opacity:1;paint-order:normal"
       id="path3980"
       inkscape:flatsided="false"
       sodipodi:sides="5"
       sodipodi:cx="22.685043"
       sodipodi:cy="108.32108"
       sodipodi:r1="91.855164"
       sodipodi:r2="45.927574"
       sodipodi:arg1="0.76356757"
       sodipodi:arg2="1.3918861"
       inkscape:rounded="0"
       inkscape:randomized="0"
       d="M 89.038791,171.8392 30.85819,153.51557 -17.21984,191.05542 -17.771827,130.06007 -68.331279,95.935601 -10.491825,76.56203 6.3387464,17.932092 42.637482,66.953919 103.5988,64.843097 68.193197,114.51382 Z"
       inkscape:transform-center-x="1.1939978"
       inkscape:transform-center-y="-3.8285416"
       transform="matrix(-0.49147257,0.28375183,-0.28375183,-0.49147257,65.748785,83.413399)" />
    <path
       sodipodi:type="star"
       style="fill:#000000;fill-opacity:1;stroke:#9c59d1;stroke-width:2.64315;stroke-dasharray:none;stroke-opacity:1"
       id="path4708"
       inkscape:flatsided="false"
       sodipodi:sides="5"
       sodipodi:cx="22.685043"
       sodipodi:cy="108.32108"
       sodipodi:r1="91.855164"
       sodipodi:r2="45.927574"
       sodipodi:arg1="0.76356757"
       sodipodi:arg2="1.3918861"
       inkscape:rounded="0"
       inkscape:randomized="0"
       d="M 89.038791,171.8392 30.85819,153.51557 -17.21984,191.05542 -17.771827,130.06007 -68.331279,95.935601 -10.491825,76.56203 6.3387464,17.932092 42.637482,66.953919 103.5988,64.843097 68.193197,114.51382 Z"
       inkscape:transform-center-x="-3.0044025"
       inkscape:transform-center-y="-2.0330948"
       transform="matrix(-0.54816644,0.14688076,-0.14688076,-0.54816644,106.65296,216.86007)" />
    <path
       sodipodi:type="star"
       style="fill:#fcf434;fill-opacity:1;stroke:#9c59d1;stroke-width:2.81937;stroke-dasharray:none;stroke-opacity:1"
       id="path4710"
       inkscape:flatsided="false"
       sodipodi:sides="5"
       sodipodi:cx="22.685043"
       sodipodi:cy="108.32108"
       sodipodi:r1="91.855164"
       sodipodi:r2="45.927574"
       sodipodi:arg1="0.76356757"
       sodipodi:arg2="1.3918861"
       inkscape:rounded="0"
       inkscape:randomized="0"
       d="M 89.038791,171.8392 30.85819,153.51557 -17.21984,191.05542 -17.771827,130.06007 -68.331279,95.935601 -10.491825,76.56203 6.3387464,17.932092 42.637482,66.953919 103.5988,64.843097 68.193197,114.51382 Z"
       inkscape:transform-center-x="-3.6922956"
       inkscape:transform-center-y="1.3336924"
       transform="matrix(-0.14688076,0.54816645,-0.54816645,-0.14688076,80.334983,162.02067)" />
    <path
       sodipodi:type="star"
       style="display:inline;fill:#9c59d1;fill-opacity:1;stroke:#000000;stroke-width:2.81937;stroke-dasharray:none;stroke-opacity:1"
       id="path4712"
       inkscape:flatsided="false"
       sodipodi:sides="5"
       sodipodi:cx="22.685043"
       sodipodi:cy="108.32108"
       sodipodi:r1="91.855164"
       sodipodi:r2="45.927574"
       sodipodi:arg1="0.76356757"
       sodipodi:arg2="1.3918861"
       inkscape:rounded="0"
       inkscape:randomized="0"
       d="M 89.038791,171.8392 30.85819,153.51557 -17.21984,191.05542 -17.771827,130.06007 -68.331279,95.935601 -10.491825,76.56203 6.3387464,17.932092 42.637482,66.953919 103.5988,64.843097 68.193197,114.51382 Z"
       inkscape:transform-center-x="-0.068426681"
       inkscape:transform-center-y="-4.9126708"
       transform="matrix(-0.51219566,0.24436859,-0.24436859,-0.51219566,290.50466,227.19882)" />
    <path
       sodipodi:type="star"
       style="display:inline;fill:#ffffff;fill-opacity:1;stroke:#000000;stroke-width:2.81937;stroke-dasharray:none;stroke-opacity:1"
       id="path4714"
       inkscape:flatsided="false"
       sodipodi:sides="5"
       sodipodi:cx="22.685043"
       sodipodi:cy="108.32108"
       sodipodi:r1="91.855164"
       sodipodi:r2="45.927574"
       sodipodi:arg1="0.76356757"
       sodipodi:arg2="1.3918861"
       inkscape:rounded="0"
       inkscape:randomized="0"
       d="M 89.038791,171.8392 30.85819,153.51557 -17.21984,191.05542 -17.771827,130.06007 -68.331279,95.935601 -10.491825,76.56203 6.3387464,17.932092 42.637482,66.953919 103.5988,64.843097 68.193197,114.51382 Z"
       inkscape:transform-center-x="1.0537211"
       inkscape:transform-center-y="3.9649932"
       transform="matrix(-0.55064301,-0.13730507,0.13730507,-0.55064301,269.31582,92.568974)" />
    <path
       sodipodi:type="star"
       style="fill:#fcf434;fill-opacity:1;stroke:#000000;stroke-width:2.81937;stroke-dasharray:none;stroke-opacity:1"
       id="path4716"
       inkscape:flatsided="false"
       sodipodi:sides="5"
       sodipodi:cx="22.685043"
       sodipodi:cy="108.32108"
       sodipodi:r1="91.855164"
       sodipodi:r2="45.927574"
       sodipodi:arg1="0.76356757"
       sodipodi:arg2="1.3918861"
       inkscape:rounded="0"
       inkscape:randomized="0"
       d="M 89.038791,171.8392 30.85819,153.51557 -17.21984,191.05542 -17.771827,130.06007 -68.331279,95.935601 -10.491825,76.56203 6.3387464,17.932092 42.637482,66.953919 103.5988,64.843097 68.193197,114.51382 Z"
       inkscape:transform-center-x="4.6421833"
       inkscape:transform-center-y="0.35163102"
       transform="matrix(-0.40128569,0.40128569,-0.40128569,-0.40128569,312.92585,132.79473)" />
    <path
       sodipodi:type="star"
       style="fill:#000000;fill-opacity:1;stroke:#9c59d1;stroke-width:2.64315;stroke-dasharray:none;stroke-opacity:1"
       id="path4718"
       inkscape:flatsided="false"
       sodipodi:sides="5"
       sodipodi:cx="22.685043"
       sodipodi:cy="108.32108"
       sodipodi:r1="91.855164"
       sodipodi:r2="45.927574"
       sodipodi:arg1="0.76356757"
       sodipodi:arg2="1.3918861"
       inkscape:rounded="0"
       inkscape:randomized="0"
       d="M 89.038791,171.8392 30.85819,153.51557 -17.21984,191.05542 -17.771827,130.06007 -68.331279,95.935601 -10.491825,76.56203 6.3387464,17.932092 42.637482,66.953919 103.5988,64.843097 68.193197,114.51382 Z"
       inkscape:transform-center-x="-4.6421943"
       inkscape:transform-center-y="-0.35163525"
       transform="matrix(0.40128568,-0.40128569,0.40128569,0.40128568,130.65493,168.98401)" />
    <path
       sodipodi:type="star"
       style="display:inline;fill:#ffffff;fill-opacity:1;stroke:#000000;stroke-width:2.81937;stroke-dasharray:none;stroke-opacity:1"
       id="path4720"
       inkscape:flatsided="false"
       sodipodi:sides="5"
       sodipodi:cx="22.685043"
       sodipodi:cy="108.32108"
       sodipodi:r1="91.855164"
       sodipodi:r2="45.927574"
       sodipodi:arg1="0.76356757"
       sodipodi:arg2="1.3918861"
       inkscape:rounded="0"
       inkscape:randomized="0"
       d="M 89.038791,171.8392 30.85819,153.51557 -17.21984,191.05542 -17.771827,130.06007 -68.331279,95.935601 -10.491825,76.56203 6.3387464,17.932092 42.637482,66.953919 103.5988,64.843097 68.193197,114.51382 Z"
       inkscape:transform-center-x="4.5078359"
       inkscape:transform-center-y="-0.49169195"
       transform="matrix(-0.49147259,-0.28375183,0.28375183,-0.49147259,93.314971,276.63333)" />
  </g>
</svg>
